<svg width="24" height="24" viewBox="0 0 24 24" fill="none" xmlns="http://www.w3.org/2000/svg">
<path d="M16 11C15.731 11 15.4971 10.9006 15.2982 10.7018C15.0994 10.5029 15 10.269 15 10C15 9.7193 15.0994 9.48538 15.2982 9.29825C15.4971 9.09942 15.731 9 16 9H19.8596C19.9181 9 19.8713 9.08772 19.7193 9.26316C19.5789 9.4269 19.4211 9.58479 19.2456 9.73684C19.0819 9.87719 19 9.91813 19 9.85965V6C19 5.7193 19.0994 5.48538 19.2982 5.29825C19.4971 5.09941 19.731 5 20 5C20.2807 5 20.5146 5.09941 20.7018 5.29825C20.9006 5.48538 21 5.7193 21 6V9.85965C21 10.1754 20.8889 10.4444 20.6667 10.6667C20.4444 10.8889 20.1754 11 19.8596 11H16ZM5 18C5 18.269 4.90058 18.5029 4.70175 18.7018C4.51462 18.9006 4.2807 19 4 19C3.73099 19 3.49708 18.9006 3.29825 18.7018C3.09942 18.5029 3 18.269 3 18V14.1404C3 13.8246 3.11111 13.5556 3.33333 13.3333C3.55556 13.1111 3.82456 13 4.14035 13H8C8.2807 13 8.51462 13.0994 8.70175 13.2982C8.90058 13.4854 9 13.7193 9 14C9 14.269 8.90058 14.5029 8.70175 14.7018C8.51462 14.9006 8.2807 15 8 15H4.14035C4.08187 15 4.12281 14.9181 4.26316 14.7544C4.4152 14.5789 4.5731 14.4211 4.73684 14.2807C4.91228 14.1287 5 14.0819 5 14.1404V18ZM4.85965 13.4561L7.66667 16.3684C8.22807 16.9532 8.8655 17.3977 9.57895 17.7018C10.3041 17.9942 11.1111 18.1404 12 18.1404C13.2515 18.1404 14.3626 17.8246 15.3333 17.193C16.3158 16.5614 17.0702 15.6842 17.5965 14.5614C17.6667 14.3977 17.7836 14.2632 17.9474 14.1579C18.1111 14.0526 18.2924 14 18.4912 14C18.7719 14 19.0058 14.0994 19.193 14.2982C19.3918 14.4854 19.4912 14.7193 19.4912 15C19.4912 15.1287 19.462 15.269 19.4035 15.4211C18.9708 16.345 18.3801 17.1637 17.6316 17.8772C16.883 18.5906 16.0234 19.1462 15.0526 19.5439C14.0819 19.9415 13.0643 20.1404 12 20.1404C10.8889 20.1404 9.83041 19.9298 8.82456 19.5088C7.81871 19.0877 6.95322 18.4971 6.22807 17.7368L3.42105 14.8246L4.85965 13.4561ZM20.5789 9.17544C20.7661 9.36257 20.8596 9.59064 20.8596 9.85965C20.8596 10.1287 20.7602 10.3626 20.5614 10.5614C20.3743 10.7602 20.1404 10.8596 19.8596 10.8596C19.5906 10.8596 19.3509 10.7544 19.1404 10.5439L16.3333 7.63158C15.7719 7.04678 15.1287 6.60819 14.4035 6.31579C13.6901 6.0117 12.8889 5.85965 12 5.85965C10.7485 5.85965 9.63158 6.17544 8.64912 6.80702C7.67836 7.4386 6.93567 8.30994 6.42105 9.42105C6.33918 9.59649 6.21637 9.73684 6.05263 9.8421C5.88889 9.94737 5.7076 10 5.50877 10C5.23977 10 5.00585 9.90059 4.80702 9.70175C4.60819 9.50292 4.50877 9.26901 4.50877 9C4.50877 8.85965 4.54386 8.71345 4.61404 8.5614C5.04678 7.63743 5.63158 6.82456 6.36842 6.12281C7.11696 5.40936 7.97661 4.8538 8.94737 4.45614C9.91813 4.05848 10.9357 3.85965 12 3.85965C13.1228 3.85965 14.1813 4.07018 15.1754 4.49123C16.1813 4.90059 17.0468 5.49123 17.7719 6.26316L20.5789 9.17544Z" fill="white"/>
</svg>
