<svg width="24" height="24" viewBox="0 0 24 24" fill="none" xmlns="http://www.w3.org/2000/svg">
<path d="M4.29825 5.70175C4.09942 5.51462 4 5.2807 4 5C4 4.7193 4.09942 4.48538 4.29825 4.29824C4.49708 4.09942 4.73099 4 5 4C5.2924 4 5.52632 4.09942 5.70175 4.29824L19.7018 18.2982C19.9006 18.4737 20 18.7076 20 19C20 19.269 19.9006 19.5029 19.7018 19.7018C19.5146 19.9006 19.2807 20 19 20C18.7193 20 18.4854 19.9006 18.2982 19.7018L4.29825 5.70175ZM18.2982 4.29824C18.4854 4.09942 18.7193 4 19 4C19.2807 4 19.5146 4.09942 19.7018 4.29824C19.9006 4.48538 20 4.7193 20 5C20 5.2807 19.9006 5.51462 19.7018 5.70175L5.70175 19.7018C5.52632 19.9006 5.2924 20 5 20C4.73099 20 4.49708 19.9006 4.29825 19.7018C4.09942 19.5029 4 19.269 4 19C4 18.7076 4.09942 18.4737 4.29825 18.2982L18.2982 4.29824Z" fill="#333333"/>
</svg>
