<svg width="135" height="135" viewBox="0 0 135 135" fill="none" xmlns="http://www.w3.org/2000/svg">
<path fill-rule="evenodd" clip-rule="evenodd" d="M4.94257 4.94257C11.5327 -1.64752 22.2173 -1.64752 28.8074 4.94257L130.057 106.193C136.648 112.783 136.648 123.467 130.057 130.057C123.467 136.648 112.783 136.648 106.193 130.057L4.94257 28.8074C-1.64752 22.2173 -1.64752 11.5327 4.94257 4.94257Z" fill="#FF6E48"/>
<path fill-rule="evenodd" clip-rule="evenodd" d="M130.057 4.94257C136.648 11.5327 136.648 22.2173 130.057 28.8074L28.8074 130.057C22.2173 136.648 11.5327 136.648 4.94258 130.057C-1.64753 123.467 -1.64753 112.783 4.94258 106.193L106.193 4.94257C112.783 -1.64753 123.467 -1.64753 130.057 4.94257Z" fill="#FF6E48"/>
</svg>
