<svg width="148" height="148" viewBox="0 0 148 148" fill="none" xmlns="http://www.w3.org/2000/svg">
<rect width="148" height="148" fill="white"/>
<path fill-rule="evenodd" clip-rule="evenodd" d="M108.349 87.5865C102.477 102.855 87.6712 113.69 70.3346 113.69C47.8488 113.69 29.6204 95.4619 29.6204 72.976C29.6204 50.4901 47.8488 32.2617 70.3346 32.2617C91.0043 32.2617 108.077 47.6644 110.7 67.6182L128.571 73.2617L108.349 87.5865Z" fill="white"/>
<circle cx="51.5506" cy="69.0497" r="3.28571" transform="rotate(11.3284 51.5506 69.0497)" fill="black"/>
<circle cx="72.1151" cy="73.5956" r="3.28571" transform="rotate(11.3284 72.1151 73.5956)" fill="black"/>
<circle cx="59.5436" cy="76.0009" r="3.28571" transform="rotate(11.3284 59.5436 76.0009)" fill="black"/>
<path d="M110.825 67.8808L108.702 68.1729C108.819 69.0194 109.427 69.7158 110.25 69.9451L110.825 67.8808ZM108.211 88.7891L106.973 87.0402C106.638 87.2769 106.379 87.6046 106.225 87.9844L108.211 88.7891ZM130.143 73.2623L131.381 75.0112C132.056 74.5334 132.396 73.7098 132.254 72.8951C132.112 72.0804 131.515 71.4199 130.718 71.198L130.143 73.2623ZM102.243 51.572C105.784 56.7082 107.907 62.3944 108.702 68.1729L112.948 67.5888C112.063 61.1617 109.701 54.8398 105.772 49.1397L102.243 51.572ZM48.5948 41.7064C66.1338 29.616 90.1531 34.0331 102.243 51.572L105.772 49.1397C92.3383 29.6519 65.6502 24.7441 46.1624 38.1778L48.5948 41.7064ZM38.7292 95.3551C26.6388 77.8161 31.0558 53.7967 48.5948 41.7064L46.1624 38.1778C26.6747 51.6115 21.7669 78.2997 35.2006 97.7874L38.7292 95.3551ZM92.3778 105.221C74.8388 117.311 50.8195 112.894 38.7292 95.3551L35.2006 97.7874C48.6343 117.275 75.3224 122.183 94.8102 108.749L92.3778 105.221ZM106.225 87.9844C103.492 94.7302 98.8225 100.778 92.3778 105.221L94.8102 108.749C101.966 103.817 107.159 97.0922 110.197 89.5938L106.225 87.9844ZM128.905 71.5133L106.973 87.0402L109.449 90.538L131.381 75.0112L128.905 71.5133ZM110.25 69.9451L129.568 75.3265L130.718 71.198L111.4 65.8166L110.25 69.9451Z" fill="black"/>
<path d="M37.8125 50.1602L111.049 67.976" stroke="black" stroke-width="4.28571" stroke-linecap="round" stroke-linejoin="round"/>
<path d="M63.5 101L66.5 93.5" stroke="black" stroke-width="4" stroke-linecap="round" stroke-linejoin="round"/>
<path d="M38.5715 50.6152L111.808 68.4311" stroke="black" stroke-width="4.28571" stroke-linecap="round" stroke-linejoin="round"/>
<path d="M38.5713 50.6152L111.808 68.4311" stroke="black" stroke-width="4.28571" stroke-linecap="round" stroke-linejoin="round"/>
<path d="M109.895 65.2365L40.3123 48.6489C39.6593 48.4932 39.3421 47.7509 39.681 47.1714L61.6137 9.6606C61.8417 9.27073 62.3027 9.08204 62.7386 9.20018L114.676 23.2768C115.151 23.4054 115.461 23.8597 115.409 24.3485L111.121 64.3703C111.057 64.9696 110.481 65.3763 109.895 65.2365Z" fill="black" stroke="black" stroke-width="4" stroke-linecap="round" stroke-linejoin="round"/>
<line x1="21.8277" y1="45.0515" x2="134.052" y2="72.1723" stroke="black" stroke-width="8" stroke-linecap="round"/>
<path d="M41 133C43.5 129.5 43.6667 112.333 41 101.5C48.2 114.3 69 115.5 79 113L41 133Z" fill="white" stroke="black" stroke-width="4" stroke-linecap="round" stroke-linejoin="round"/>
<path d="M78.7972 93.6266C71.409 84.1465 54.9922 82.2101 46.1026 83.2534C45.81 83.2877 45.5555 83.4535 45.3968 83.7017L38.4885 94.5035C37.9845 95.2915 38.7785 96.4166 39.7116 96.3514C49.3855 95.6748 67.6339 102.984 77.5965 107.376C78.2598 107.669 79 107.181 79 106.456V94.2252C79 94.0087 78.9303 93.7973 78.7972 93.6266Z" stroke="black" stroke-width="4" stroke-linecap="round" stroke-linejoin="round"/>
<path d="M47.5 97L52 89.5" stroke="black" stroke-width="4" stroke-linecap="round" stroke-linejoin="round"/>
<path d="M66.5 16L58 32" stroke="white" stroke-width="4" stroke-linecap="round" stroke-linejoin="round"/>
</svg>
