<svg width="148" height="148" viewBox="0 0 148 148" fill="none" xmlns="http://www.w3.org/2000/svg">
<path fill-rule="evenodd" clip-rule="evenodd" d="M108.492 95.5869C102.62 110.855 87.814 121.691 70.4775 121.691C47.9916 121.691 29.7632 103.462 29.7632 80.9765C29.7632 58.4906 47.9916 40.2622 70.4775 40.2622C91.1472 40.2622 108.219 55.6649 110.842 75.6186L128.714 81.2622L108.492 95.5869Z" fill="white"/>
<path d="M57.3478 63.061C60.0691 52.9049 72.2477 43.8829 77.9969 40.6414L87.7941 43.2666L89.3614 71.639L57.3478 63.061Z" fill="#FBFF4D"/>
<circle cx="51.6935" cy="77.0492" r="3.28571" transform="rotate(11.3284 51.6935 77.0492)" fill="black"/>
<circle cx="72.2579" cy="81.5951" r="3.28571" transform="rotate(11.3284 72.2579 81.5951)" fill="black"/>
<circle cx="59.6866" cy="84.0009" r="3.28571" transform="rotate(11.3284 59.6866 84.0009)" fill="black"/>
<path d="M81.6144 39.8359L84.5706 28.8033M65.666 23.7378L103.475 33.8687" stroke="black" stroke-width="4.28571" stroke-linecap="round" stroke-linejoin="round"/>
<path d="M81.3187 40.9398C81.0515 40.8886 80.7734 40.8398 80.4851 40.7936C73.3445 40.1878 66.0152 55.8236 63.1534 64.0248L37.7634 57.2216C50.6056 40.5716 71.0567 39.2819 80.4851 40.7936C80.7633 40.8172 81.0413 40.8654 81.3187 40.9398Z" fill="#FF6E48"/>
<path d="M43 74C40.2 72.8 41.5 63.8333 42.5 59.5L54 62.5L43 74Z" fill="#FBFF4D"/>
<path d="M86.3307 70.6221L89.7064 86.1148C90.9868 86.308 93.6762 82.0712 97 80.9998C98.5291 80.5068 100.587 84.0598 102 82.9998C103.242 82.068 104.024 77.8675 105 76.9999C105.451 75.8995 97.3941 74.9828 97.6845 74.1174L86.3307 70.6221Z" fill="#FBFF4D"/>
<path d="M81.3186 40.9396C81.5755 41.029 81.8407 41.1257 82.1136 41.2298C88.6004 44.2755 87.1298 61.4812 85.5076 70.0145L110.898 76.8178C108.101 55.9774 91.0346 44.6348 82.1136 41.2298C81.8608 41.1111 81.5959 41.014 81.3186 40.9396Z" fill="#6E7DFF"/>
<path d="M110.968 75.8804L108.845 76.1724C108.961 77.0189 109.57 77.7153 110.393 77.9446L110.968 75.8804ZM108.354 96.7886L107.116 95.0397C106.781 95.2764 106.522 95.6041 106.368 95.9839L108.354 96.7886ZM130.286 81.2618L131.524 83.0107C132.199 82.5329 132.539 81.7093 132.397 80.8946C132.255 80.0799 131.657 79.4194 130.861 79.1975L130.286 81.2618ZM102.386 59.5716C105.927 64.7077 108.05 70.3939 108.845 76.1724L113.091 75.5883C112.206 69.1612 109.844 62.8393 105.915 57.1392L102.386 59.5716ZM48.7376 49.7059C66.2766 37.6156 90.296 42.0326 102.386 59.5716L105.915 57.1392C92.4812 37.6514 65.793 32.7436 46.3053 46.1773L48.7376 49.7059ZM38.872 103.355C26.7816 85.8156 31.1986 61.7962 48.7376 49.7059L46.3053 46.1773C26.8175 59.611 21.9097 86.2992 35.3434 105.787L38.872 103.355ZM92.5206 113.22C74.9817 125.311 50.9623 120.894 38.872 103.355L35.3434 105.787C48.7771 125.275 75.4653 130.183 94.953 116.749L92.5206 113.22ZM106.368 95.9839C103.635 102.73 98.9653 108.778 92.5206 113.22L94.953 116.749C102.108 111.816 107.302 105.092 110.34 97.5933L106.368 95.9839ZM129.048 79.5128L107.116 95.0397L109.592 98.5375L131.524 83.0107L129.048 79.5128ZM110.393 77.9446L129.711 83.326L130.861 79.1975L111.543 73.8161L110.393 77.9446Z" fill="black"/>
<path d="M37.9553 58.1606L111.192 75.9765" stroke="black" stroke-width="4.28571" stroke-linecap="round" stroke-linejoin="round"/>
<path d="M68.1259 74.6688C69.9875 73.1481 74.3949 70.9444 77.1321 74.2952" stroke="black" stroke-width="4.3" stroke-linecap="round"/>
<path d="M61.7144 62.4287C64.7144 53.8573 69.5715 46.5716 76.5715 41.4287M85.5715 44.8573C86.6667 50.143 88.2001 61.1716 85.5715 69.2859" stroke="black" stroke-width="4.28571" stroke-linecap="round"/>
<path d="M42.5 59.5C40.7952 62.4446 39.3211 71.3267 42.6605 74.8092C43.0662 75.2322 43.7317 75.0577 44.0295 74.5529C46.5886 70.215 53.2953 61.5182 56.9999 63" stroke="black" stroke-width="4" stroke-linecap="round"/>
<path d="M83.5562 69.4065C87.4876 70.0879 88.6362 81.0102 88.5399 86.0457C88.5287 86.6317 89.0011 87.1289 89.581 87.0443C94.0337 86.3949 96.0724 82.2455 97.0001 79.9265C98.0035 80.6975 99.7056 82.4454 100.316 84.4566C100.559 85.2568 101.523 85.8112 102.121 85.2266C104.078 83.3132 106.307 79.7226 106 74.5" stroke="black" stroke-width="4" stroke-linecap="round"/>
<path d="M56.5 96L46 99" stroke="#FF6E48" stroke-width="4" stroke-linecap="round"/>
<path d="M117 85.5C118.833 86.8333 120.5 90.7 120.5 95.5C120.5 101.5 114.5 99 114.5 93.5" stroke="black" stroke-width="4" stroke-linecap="round"/>
<path d="M47.4285 91.3423L48.4192 91.9602C53.6771 95.2396 59.8215 96.8103 66.0082 96.4565L68.1202 96.3358" stroke="black" stroke-width="4.28571" stroke-linecap="round"/>
<path d="M76.9789 90.6847C74.7825 90.4486 70.0881 91.2261 68.8816 96.2255C67.6752 101.225 71.5652 103.78 73.661 104.433" stroke="black" stroke-width="4.28571" stroke-linecap="round"/>
</svg>
