<svg width="200" height="200" viewBox="0 0 200 200" fill="none" xmlns="http://www.w3.org/2000/svg">
<rect width="200" height="200" fill="white"/>
<path fill-rule="evenodd" clip-rule="evenodd" d="M157.921 133.927C149.536 155.728 128.396 171.199 103.642 171.199C71.5351 171.199 45.5076 145.172 45.5076 113.065C45.5076 80.9587 71.5351 54.9312 103.642 54.9312C133.155 54.9312 157.532 76.9239 161.277 105.415L186.795 113.473L157.921 133.927Z" fill="white"/>
<path d="M84.8944 87.4848C88.78 72.9835 106.169 60.1013 114.378 55.4729L128.367 59.2213L130.605 99.7329L84.8944 87.4848Z" fill="#FBFF4D"/>
<circle cx="76.8208" cy="107.458" r="4.69152" transform="rotate(11.3284 76.8208 107.458)" fill="black"/>
<circle cx="106.184" cy="113.949" r="4.69152" transform="rotate(11.3284 106.184 113.949)" fill="black"/>
<circle cx="88.2339" cy="117.384" r="4.69152" transform="rotate(11.3284 88.2339 117.384)" fill="black"/>
<path d="M119.121 55.8989C118.74 55.8259 118.343 55.7562 117.931 55.6902C107.735 54.8252 97.2702 77.1509 93.1839 88.8611L56.9306 79.147C75.2674 55.3732 104.469 53.5317 117.931 55.6902C118.328 55.7239 118.725 55.7928 119.121 55.8989Z" fill="#FF6E48"/>
<path d="M119.121 55.8988C119.488 56.0264 119.867 56.1645 120.256 56.3132C129.519 60.6619 127.419 85.2292 125.102 97.4136L161.356 107.128C157.363 77.3705 132.994 61.175 120.256 56.3132C119.895 56.1437 119.517 56.005 119.121 55.8988Z" fill="#6E7DFF"/>
<path d="M161.456 105.789L158.425 106.206C158.591 107.415 159.46 108.409 160.635 108.736L161.456 105.789ZM157.724 135.643L155.956 133.146C155.478 133.484 155.108 133.952 154.888 134.494L157.724 135.643ZM189.039 113.473L190.807 115.97C191.771 115.288 192.256 114.112 192.054 112.949C191.851 111.785 190.998 110.842 189.86 110.525L189.039 113.473ZM149.203 82.5024C154.258 89.8361 157.29 97.9551 158.425 106.206L164.487 105.372C163.224 96.195 159.852 87.1683 154.241 79.0293L149.203 82.5024ZM72.6003 68.4157C97.6435 51.1524 131.94 57.4593 149.203 82.5024L154.241 79.0293C135.06 51.2036 96.9529 44.196 69.1272 63.3774L72.6003 68.4157ZM58.5136 145.018C41.2503 119.975 47.5572 85.679 72.6003 68.4157L69.1272 63.3774C41.3015 82.5588 34.2939 120.666 53.4753 148.491L58.5136 145.018ZM135.116 159.105C110.073 176.368 75.7768 170.061 58.5136 145.018L53.4753 148.491C72.6567 176.317 110.763 183.325 138.589 164.143L135.116 159.105ZM154.888 134.494C150.985 144.126 144.318 152.762 135.116 159.105L138.589 164.143C148.806 157.1 156.221 147.499 160.559 136.792L154.888 134.494ZM187.271 110.976L155.956 133.146L159.492 138.14L190.807 115.97L187.271 110.976ZM160.635 108.736L188.218 116.42L189.86 110.525L162.277 102.841L160.635 108.736Z" fill="black"/>
<path d="M57.2047 80.4875L161.776 105.926" stroke="black" stroke-width="6.11938" stroke-linecap="round" stroke-linejoin="round"/>
<path d="M70.731 127.866L100.276 134.996" stroke="black" stroke-width="6.11938" stroke-linecap="round"/>
<path d="M91.1292 86.582C95.4128 74.3432 102.348 63.9403 112.343 56.597M125.194 61.4925C126.758 69.0398 128.947 84.787 125.194 96.373" stroke="black" stroke-width="6.11938" stroke-linecap="round"/>
<path d="M119.961 54.4609L123.24 42.2214C128.4 43.5204 135.151 40.7406 137.136 33.9899C139.122 27.2391 136.077 21.8805 128.92 19.8599C120.481 17.4773 116.09 24.8564 115.295 28.0333" stroke="black" stroke-width="6" stroke-linecap="round" stroke-linejoin="round"/>
<circle cx="113.166" cy="35.2952" r="3" fill="black"/>
<circle cx="30.5" cy="93.5" r="23.5" fill="#C5F0FE" stroke="black" stroke-width="6"/>
<path d="M38 118C38.5176 119.932 43.8234 139.733 46.4116 149.393" stroke="black" stroke-width="6" stroke-linecap="round"/>
<path d="M24.5 80.5C20.6667 81.8333 13.7 88 16.5 96" stroke="white" stroke-width="6" stroke-linecap="round"/>
<path d="M68.7292 89.7045C72.0626 87.5379 79.3292 85.7045 81.7292 95.7045" stroke="black" stroke-width="6" stroke-linecap="round"/>
<path d="M120.729 95C118.596 95.1634 111.129 95.4902 102.596 99.4116C101.885 100.065 98.4359 100.49 96.7292 98.9214" stroke="black" stroke-width="6" stroke-linecap="round"/>
</svg>
