<svg width="148" height="162" viewBox="0 0 148 162" fill="none" xmlns="http://www.w3.org/2000/svg">
<rect width="148" height="162" fill="white"/>
<path fill-rule="evenodd" clip-rule="evenodd" d="M114.492 85.5867C108.62 100.855 93.814 111.691 76.4775 111.691C53.9916 111.691 35.7632 93.4621 35.7632 70.9762C35.7632 48.4904 53.9916 30.262 76.4775 30.262C97.1472 30.262 114.219 45.6647 116.842 65.6184L134.714 71.262L114.492 85.5867Z" fill="white"/>
<path d="M77 79.5C80.3333 81.6667 84 85 81.5 89" stroke="black" stroke-width="4" stroke-linecap="round"/>
<path d="M63.3478 53.061C66.0691 42.9049 78.2477 33.8829 83.9969 30.6414L93.7941 33.2666L95.3614 61.639L63.3478 53.061Z" fill="#FBFF4D"/>
<circle cx="57.6935" cy="67.0492" r="3.28571" transform="rotate(11.3284 57.6935 67.0492)" fill="black"/>
<circle cx="78.2579" cy="71.5951" r="3.28571" transform="rotate(11.3284 78.2579 71.5951)" fill="black"/>
<circle cx="65.6866" cy="74.0007" r="3.28571" transform="rotate(11.3284 65.6866 74.0007)" fill="black"/>
<path d="M87.3187 30.9398C87.0515 30.8886 86.7734 30.8398 86.4851 30.7936C79.3445 30.1878 72.0152 45.8236 69.1534 54.0248L43.7634 47.2216C56.6056 30.5716 77.0567 29.2819 86.4851 30.7936C86.7633 30.8172 87.0413 30.8654 87.3187 30.9398Z" fill="#FF6E48"/>
<path d="M87.3186 30.9396C87.5755 31.029 87.8407 31.1257 88.1136 31.2298C94.6004 34.2755 93.1298 51.4812 91.5076 60.0145L116.898 66.8178C114.101 45.9774 97.0346 34.6348 88.1136 31.2298C87.8608 31.1111 87.5959 31.014 87.3186 30.9396Z" fill="#6E7DFF"/>
<path d="M116.968 65.8804L114.845 66.1724C114.961 67.0189 115.57 67.7153 116.393 67.9446L116.968 65.8804ZM114.354 86.7886L113.116 85.0397C112.781 85.2764 112.522 85.6041 112.368 85.9839L114.354 86.7886ZM136.286 71.2618L137.524 73.0107C138.199 72.5329 138.539 71.7093 138.397 70.8946C138.255 70.0799 137.657 69.4194 136.861 69.1975L136.286 71.2618ZM108.386 49.5716C111.927 54.7077 114.05 60.3939 114.845 66.1724L119.091 65.5883C118.206 59.1612 115.844 52.8393 111.915 47.1392L108.386 49.5716ZM54.7376 39.7059C72.2766 27.6156 96.296 32.0326 108.386 49.5716L111.915 47.1392C98.4812 27.6514 71.793 22.7436 52.3053 36.1773L54.7376 39.7059ZM44.872 93.3546C32.7816 75.8156 37.1986 51.7962 54.7376 39.7059L52.3053 36.1773C32.8175 49.611 27.9097 76.2992 41.3434 95.787L44.872 93.3546ZM98.5206 103.22C80.9817 115.311 56.9623 110.894 44.872 93.3546L41.3434 95.787C54.7771 115.275 81.4653 120.183 100.953 106.749L98.5206 103.22ZM112.368 85.9839C109.635 92.7297 104.965 98.7777 98.5206 103.22L100.953 106.749C108.108 101.816 113.302 95.0917 116.34 87.5933L112.368 85.9839ZM135.048 69.5128L113.116 85.0397L115.592 88.5375L137.524 73.0107L135.048 69.5128ZM116.393 67.9446L135.711 73.326L136.861 69.1975L117.543 63.8161L116.393 67.9446Z" fill="black"/>
<path d="M43.9553 48.1604L117.192 65.9763" stroke="black" stroke-width="4.28571" stroke-linecap="round" stroke-linejoin="round"/>
<path d="M79.5001 84.5001C72.0001 89.0001 56.5002 86.5 49 84.5C49 84.5 53.5 83 55.5 81" stroke="black" stroke-width="4" stroke-linecap="round" stroke-linejoin="round"/>
<path d="M67.7144 52.4287C70.7144 43.8573 75.5715 36.5716 82.5715 31.4287M91.5715 34.8573C92.6667 40.143 94.2001 51.1716 91.5715 59.2859" stroke="black" stroke-width="4.28571" stroke-linecap="round"/>
<path d="M55 53.5L62.5 62" stroke="black" stroke-width="4" stroke-linecap="round"/>
<path d="M86 59L74.0001 64.2088" stroke="black" stroke-width="4" stroke-linecap="round"/>
<circle cx="53.7977" cy="66.7977" r="9.5" transform="rotate(13.0366 53.7977 66.7977)" stroke="black" stroke-width="4"/>
<circle cx="79.1276" cy="72.6627" r="9.5" transform="rotate(13.0366 79.1276 72.6627)" stroke="black" stroke-width="4"/>
<path d="M64 67L70.5 68.5" stroke="black" stroke-width="4" stroke-linecap="round"/>
<path d="M79.5 23L90 14.5L88.5 31L105 18.5L104 31" stroke="black" stroke-width="4" stroke-linecap="round" stroke-linejoin="round"/>
<path fill-rule="evenodd" clip-rule="evenodd" d="M29.0819 8.5C30.2366 6.5 33.1234 6.5 34.2781 8.5L34.5138 8.90817C35.3422 10.343 37.177 10.8347 38.6118 10.0062L39.02 9.77059C41.02 8.61589 43.52 10.0593 43.52 12.3687V12.84C43.52 14.4968 44.8631 15.84 46.52 15.84H46.9915C49.3009 15.84 50.7443 18.34 49.5896 20.34L49.3538 20.7483C48.5254 22.1832 49.017 24.0179 50.4519 24.8464L50.8601 25.0821C52.8601 26.2368 52.8601 29.1235 50.8601 30.2782L50.452 30.5139C49.0171 31.3423 48.5255 33.1771 49.3539 34.6119L49.5896 35.0201C50.7443 37.0201 49.3009 39.5201 46.9915 39.5201H46.5202C44.8633 39.5201 43.5202 40.8633 43.5202 42.5201L43.5202 42.9916C43.5202 45.301 41.0202 46.7444 39.0202 45.5897L38.6118 45.3539C37.1769 44.5255 35.3422 45.0171 34.5137 46.452L34.278 46.8602C33.1233 48.8602 30.2366 48.8602 29.0819 46.8602L28.8462 46.452C28.0178 45.0171 26.183 44.5255 24.7481 45.3539L24.3399 45.5896C22.3399 46.7443 19.8399 45.3009 19.8399 42.9915V42.5202C19.8399 40.8633 18.4968 39.5202 16.8399 39.5202H16.3685C14.0591 39.5202 12.6158 37.0202 13.7705 35.0202L14.0062 34.6119C14.8346 33.177 14.343 31.3422 12.9081 30.5138L12.5 30.2782C10.5 29.1234 10.5 26.2367 12.5 25.082L12.9081 24.8464C14.343 24.018 14.8346 22.1832 14.0062 20.7483L13.7704 20.34C12.6157 18.34 14.0591 15.84 16.3685 15.84H16.84C18.4969 15.84 19.84 14.4969 19.84 12.84L19.84 12.3686C19.84 10.0592 22.34 8.61586 24.34 9.77056L24.7482 10.0062C26.1831 10.8347 28.0179 10.343 28.8463 8.90816L29.0819 8.5Z" fill="#FFCC4A"/>
<path d="M24.9168 22.3586C24.9168 21.6082 25.525 21 26.2753 21V21C27.0256 21 27.6339 21.6082 27.6339 22.3586V29.2543C27.6339 30.0173 27.4455 30.6802 27.0689 31.2428C26.6964 31.8054 26.178 32.2389 25.5135 32.5434C24.849 32.8478 24.0767 33 23.1964 33C22.4134 33 21.7024 32.8748 21.0633 32.6243C20.4285 32.3699 19.9248 31.9846 19.5524 31.4682C19.4203 31.2837 19.3119 31.0825 19.2272 30.8646C18.9501 30.1516 19.618 29.5087 20.383 29.5087H20.8969C21.3641 29.5087 21.7092 29.9093 21.9457 30.3121V30.3121C22.0812 30.5318 22.2653 30.7013 22.498 30.8208C22.735 30.9364 23.0144 30.9942 23.336 30.9942C23.6746 30.9942 23.9603 30.9287 24.193 30.7977C24.4301 30.6628 24.6099 30.4663 24.7327 30.2081C24.8554 29.9499 24.9168 29.632 24.9168 29.2543V22.3586Z" fill="white"/>
<path d="M29.9066 23.0589C29.9066 21.9218 30.8284 21 31.9655 21V21C32.7757 21 33.5105 21.4751 33.843 22.2138L36.8458 28.8843C36.8649 28.9266 36.9069 28.9538 36.9533 28.9538V28.9538C36.9997 28.9538 37.0417 28.9266 37.0607 28.8843L40.0636 22.2138C40.3961 21.4751 41.1309 21 41.9411 21V21C43.0782 21 44 21.9218 44 23.0589V31.505C44 32.2413 43.4031 32.8382 42.6668 32.8382V32.8382C41.9306 32.8382 41.3337 32.2413 41.3337 31.505V25.1983C41.3337 25.1622 41.3044 25.1329 41.2684 25.1329V25.1329C41.2425 25.1329 41.219 25.1483 41.2086 25.172L38.2264 31.95C38.0044 32.4546 37.5052 32.7803 36.954 32.7803V32.7803C36.402 32.7803 35.9023 32.4538 35.6808 31.9483L32.698 25.1431C32.6876 25.1194 32.6641 25.104 32.6382 25.104V25.104C32.6021 25.104 32.5729 25.1333 32.5729 25.1693V31.505C32.5729 32.2413 31.976 32.8382 31.2398 32.8382V32.8382C30.5035 32.8382 29.9066 32.2413 29.9066 31.505V23.0589Z" fill="white"/>
<path fill-rule="evenodd" clip-rule="evenodd" d="M16.5553 120.154C17.7235 117.047 20.5042 112.42 25.713 109.054C26.5357 108.522 27.47 109.458 27.0795 110.356C25.7817 113.342 24.6575 117.169 25.3573 119.907C25.3777 119.987 25.3911 120.069 25.3978 120.154H138C138.552 120.154 139 120.602 139 121.154V151C139 151.552 138.552 152 138 152H10C9.44772 152 9 151.552 9 151V121.154C9 120.602 9.44772 120.154 10 120.154H16.5553Z" fill="white"/>
<path d="M25.713 109.054L24.6275 107.374L24.6275 107.374L25.713 109.054ZM16.5553 120.154V122.154C17.3884 122.154 18.1342 121.638 18.4274 120.858L16.5553 120.154ZM27.0795 110.356L25.2453 109.559L25.2453 109.559L27.0795 110.356ZM25.3573 119.907L23.4197 120.402L23.4197 120.402L25.3573 119.907ZM25.3978 120.154L23.4042 120.314C23.4875 121.353 24.3552 122.154 25.3978 122.154V120.154ZM24.6275 107.374C18.9932 111.016 15.9723 116.022 14.6833 119.45L18.4274 120.858C19.4746 118.073 22.0151 113.825 26.7986 110.734L24.6275 107.374ZM28.9136 111.154C29.47 109.874 29.0747 108.542 28.2456 107.735C27.3825 106.896 25.9255 106.536 24.6275 107.374L26.7986 110.734C26.6141 110.853 26.3474 110.928 26.0574 110.889C25.789 110.852 25.5873 110.73 25.4568 110.603C25.2029 110.356 25.0795 109.94 25.2453 109.559L28.9136 111.154ZM27.295 119.412C27.0542 118.469 27.0989 117.176 27.4255 115.641C27.7456 114.136 28.3004 112.564 28.9136 111.154L25.2453 109.559C24.5607 111.134 23.9046 112.968 23.5131 114.808C23.1281 116.618 22.9606 118.607 23.4197 120.402L27.295 119.412ZM27.3915 119.994C27.3763 119.805 27.3456 119.609 27.295 119.412L23.4197 120.402C23.4098 120.364 23.4058 120.334 23.4042 120.314L27.3915 119.994ZM138 118.154H25.3978V122.154H138V118.154ZM141 121.154C141 119.497 139.657 118.154 138 118.154V122.154C137.448 122.154 137 121.706 137 121.154H141ZM141 151V121.154H137V151H141ZM138 154C139.657 154 141 152.657 141 151H137C137 150.448 137.448 150 138 150V154ZM10 154H138V150H10V154ZM7 151C7 152.657 8.34316 154 10 154V150C10.5523 150 11 150.448 11 151H7ZM7 121.154V151H11V121.154H7ZM10 118.154C8.34315 118.154 7 119.497 7 121.154H11C11 121.706 10.5523 122.154 10 122.154V118.154ZM16.5553 118.154H10V122.154H16.5553V118.154Z" fill="black"/>
<path d="M17.9848 136.14V137.388H27.9688V136.14H17.9848ZM22.9528 137.988C20.5648 137.988 19.1248 138.72 19.1248 140.016C19.1248 141.312 20.5648 142.044 22.9528 142.044C25.3408 142.044 26.7928 141.312 26.7928 140.016C26.7928 138.72 25.3408 137.988 22.9528 137.988ZM22.9528 139.188C24.4288 139.188 25.1848 139.452 25.1848 140.016C25.1848 140.592 24.4288 140.844 22.9528 140.844C21.4768 140.844 20.7208 140.592 20.7208 140.016C20.7208 139.452 21.4768 139.188 22.9528 139.188ZM22.9768 131.22C20.5527 131.22 18.9808 132.048 18.9808 133.38C18.9808 134.736 20.5527 135.552 22.9768 135.552C25.4128 135.552 26.9848 134.736 26.9848 133.38C26.9848 132.048 25.4128 131.22 22.9768 131.22ZM22.9768 132.432C24.4888 132.432 25.3528 132.756 25.3528 133.38C25.3528 134.028 24.4888 134.34 22.9768 134.34C21.4768 134.34 20.6128 134.028 20.6128 133.38C20.6128 132.756 21.4768 132.432 22.9768 132.432ZM41.2692 131.64H37.5852V130.872H36.0012V131.64H32.2812V132.744H41.2692V131.64ZM34.5732 140.364H40.5732V137.82H32.9412V138.9H38.9652V139.356H32.9532V141.948H40.8612V140.868H34.5732V140.364ZM34.7772 134.388C34.7772 134.1 35.3412 133.992 36.7932 133.992C38.2572 133.992 38.8212 134.1 38.8212 134.388C38.8212 134.676 38.2572 134.784 36.7932 134.784C35.3412 134.784 34.7772 134.676 34.7772 134.388ZM37.5852 136.248V135.768C39.5052 135.672 40.5012 135.24 40.5012 134.388C40.5012 133.44 39.2412 132.996 36.7932 132.996C34.3572 132.996 33.0972 133.44 33.0972 134.388C33.0972 135.24 34.0932 135.672 36.0012 135.756V136.248H31.7892V137.376H41.7852V136.248H37.5852ZM45.0482 136.188H48.6362V131.916H43.4162V133.176H47.0162V134.94H43.4282V139.488H44.4242C46.4282 139.488 48.0482 139.416 49.8482 139.104L49.6802 137.82C48.1202 138.084 46.7282 138.168 45.0482 138.18V136.188ZM50.4482 130.968V142.056H52.0322V130.968H50.4482ZM56.6033 140.136H62.6513V137.304H55.0193V138.468H61.0913V139.044H55.0313V141.948H62.9393V140.76H56.6033V140.136ZM56.6633 132.516H61.0433V133.56H56.6633V132.516ZM59.6393 135.492V134.772H62.5913V131.304H55.1153V134.772H58.0553V135.492H53.8793V136.74H63.8633V135.492H59.6393ZM67.1263 136.188H70.7143V131.916H65.4943V133.176H69.0943V134.94H65.5063V139.488H66.5023C68.5063 139.488 70.1263 139.416 71.9263 139.104L71.7583 137.82C70.1983 138.084 68.8063 138.168 67.1263 138.18V136.188ZM72.5263 130.968V142.056H74.1103V130.968H72.5263ZM84.5908 137.208C84.8908 135.384 84.8908 134.04 84.8908 132.972V132.072H79.2028V133.332H83.3308C83.3308 134.316 83.2948 135.504 83.0428 137.076L84.5908 137.208ZM82.1788 135.24H80.6188V138.504C79.9228 138.516 79.2508 138.516 78.6388 138.516L78.7828 139.812C80.7028 139.8 83.1748 139.752 85.4188 139.368L85.3348 138.228C84.3268 138.348 83.2468 138.42 82.1788 138.456V135.24ZM88.9108 135.42H87.4228V130.968H85.8388V142.02H87.4228V136.74H88.9108V135.42ZM90.4098 132.036V133.296H93.9138C93.8778 133.824 93.7938 134.304 93.6858 134.76L89.8218 134.988L90.0258 136.332L93.2298 136.02C92.6058 137.232 91.5378 138.264 89.7258 139.164L90.5658 140.388C94.6818 138.288 95.4858 135.444 95.4858 132.036H90.4098ZM99.9738 135.192H98.4258V130.968H96.8418V142.008H98.4258V136.5H99.9738V135.192ZM103.537 140.136H109.585V137.304H101.953V138.468H108.025V139.044H101.965V141.948H109.873V140.76H103.537V140.136ZM103.597 132.516H107.977V133.56H103.597V132.516ZM106.573 135.492V134.772H109.525V131.304H102.049V134.772H104.989V135.492H100.813V136.74H110.797V135.492H106.573ZM114.06 136.188H117.648V131.916H112.428V133.176H116.028V134.94H112.44V139.488H113.436C115.44 139.488 117.06 139.416 118.86 139.104L118.692 137.82C117.132 138.084 115.74 138.168 114.06 138.18V136.188ZM119.46 130.968V142.056H121.044V130.968H119.46ZM123.291 138.643C123.274 138.107 123.339 137.652 123.487 137.28C123.635 136.908 123.849 136.625 124.131 136.432C124.415 136.239 124.749 136.142 125.132 136.142C125.399 136.142 125.655 136.197 125.899 136.308C126.143 136.419 126.42 136.611 126.73 136.884C126.895 137.028 127.034 137.139 127.148 137.216C127.261 137.29 127.392 137.327 127.54 137.327C127.741 137.327 127.908 137.249 128.038 137.092C128.169 136.933 128.23 136.682 128.222 136.338H129.611C129.631 136.878 129.565 137.334 129.415 137.706C129.264 138.078 129.047 138.361 128.763 138.554C128.479 138.747 128.148 138.844 127.77 138.844C127.489 138.844 127.224 138.786 126.977 138.669C126.733 138.55 126.462 138.359 126.163 138.098C125.987 137.942 125.847 137.83 125.741 137.761C125.636 137.69 125.511 137.655 125.366 137.655C125.165 137.655 124.999 137.732 124.868 137.885C124.737 138.036 124.676 138.288 124.685 138.643H123.291Z" fill="black"/>
</svg>
