<svg width="148" height="148" viewBox="0 0 148 148" fill="none" xmlns="http://www.w3.org/2000/svg">
<path fill-rule="evenodd" clip-rule="evenodd" d="M112.492 98.5865C106.62 113.855 91.814 124.69 74.4775 124.69C51.9916 124.69 33.7632 106.462 33.7632 83.976C33.7632 61.4901 51.9916 43.2617 74.4775 43.2617C95.1472 43.2617 112.219 58.6644 114.842 78.6182L132.714 84.2617L112.492 98.5865Z" fill="white"/>
<circle cx="55.6935" cy="80.0488" r="3.28571" transform="rotate(11.3284 55.6935 80.0488)" fill="black"/>
<circle cx="76.2579" cy="84.5956" r="3.28571" transform="rotate(11.3284 76.2579 84.5956)" fill="black"/>
<circle cx="63.6866" cy="87.0009" r="3.28571" transform="rotate(11.3284 63.6866 87.0009)" fill="black"/>
<path d="M114.968 78.8799L112.845 79.172C112.961 80.0184 113.57 80.7148 114.393 80.9441L114.968 78.8799ZM112.354 99.7881L111.116 98.0392C110.781 98.276 110.522 98.6037 110.368 98.9834L112.354 99.7881ZM134.286 84.2613L135.524 86.0102C136.199 85.5324 136.539 84.7089 136.397 83.8941C136.255 83.0794 135.657 82.4189 134.861 82.197L134.286 84.2613ZM106.386 62.5711C109.927 67.7072 112.05 73.3934 112.845 79.172L117.091 78.5878C116.206 72.1607 113.844 65.8388 109.915 60.1387L106.386 62.5711ZM52.7376 52.7054C70.2766 40.6151 94.296 45.0321 106.386 62.5711L109.915 60.1387C96.4812 40.6509 69.793 35.7431 50.3053 49.1768L52.7376 52.7054ZM42.872 106.354C30.7816 88.8151 35.1986 64.7958 52.7376 52.7054L50.3053 49.1768C30.8175 62.6106 25.9097 89.2987 39.3434 108.786L42.872 106.354ZM96.5206 116.22C78.9817 128.31 54.9623 123.893 42.872 106.354L39.3434 108.786C52.7771 128.274 79.4653 133.182 98.953 119.748L96.5206 116.22ZM110.368 98.9834C107.635 105.729 102.965 111.777 96.5206 116.22L98.953 119.748C106.108 114.816 111.302 108.091 114.34 100.593L110.368 98.9834ZM133.048 82.5123L111.116 98.0392L113.592 101.537L135.524 86.0102L133.048 82.5123ZM114.393 80.9441L133.711 86.3255L134.861 82.197L115.543 76.8156L114.393 80.9441Z" fill="black"/>
<path d="M91 65.4998L41.9555 61.1603C36.8037 60.6068 28.3001 56.9999 35.5001 46.9999C44.5001 34.4999 73.8312 31.2921 89 35.9998C103.5 40.5 121 57.0235 122 67.9998C122.8 76.7809 117.795 78.9762 115.192 78.9762L91 65.4998Z" fill="black" stroke="black" stroke-width="4.28571" stroke-linecap="round" stroke-linejoin="round"/>
<path d="M91.5 39L98 32.5" stroke="black" stroke-width="4" stroke-linecap="round"/>
<path fill-rule="evenodd" clip-rule="evenodd" d="M61.5773 94.96C58.9663 90.0542 46.1795 87.096 45.339 91.3191C44.3956 96.0594 41.2904 101.451 37.7007 104.881C36.7953 105.746 37.3857 108.47 38.6574 108.396C45.8846 107.974 54.4194 106.162 58.9581 102.162C61.1415 108.137 69.4483 113.335 76.8141 116.412C77.9895 116.903 79.4484 114.528 78.8805 113.412C76.6286 108.987 75.4831 102.872 76.162 98.0865C76.6901 94.3644 66.8134 92.7933 61.5773 94.96Z" fill="white"/>
<path d="M45.339 91.3191L43.3775 90.9287L43.3775 90.9287L45.339 91.3191ZM61.5773 94.96L59.8117 95.8997C60.2955 96.8087 61.3905 97.2018 62.342 96.8081L61.5773 94.96ZM37.7007 104.881L36.319 103.435L36.319 103.435L37.7007 104.881ZM38.6574 108.396L38.5408 106.399L38.5408 106.399L38.6574 108.396ZM58.9581 102.162L60.8366 101.475C60.6099 100.855 60.0913 100.386 59.451 100.223C58.8108 100.061 58.1314 100.224 57.6357 100.661L58.9581 102.162ZM76.8141 116.412L76.0431 118.258L76.0431 118.258L76.8141 116.412ZM78.8805 113.412L80.6629 112.505L80.6629 112.505L78.8805 113.412ZM76.162 98.0865L74.1819 97.8056L74.1819 97.8056L76.162 98.0865ZM47.3005 91.7095C47.3022 91.7014 47.3002 91.7123 47.2915 91.7253C47.2847 91.7355 47.2921 91.7192 47.3405 91.6843C47.4525 91.6036 47.7155 91.4737 48.2116 91.386C49.2117 91.2093 50.682 91.287 52.3508 91.6665C53.9945 92.0402 55.6758 92.6716 57.0654 93.4646C58.4944 94.2802 59.4131 95.1506 59.8117 95.8997L63.3428 94.0204C62.436 92.3165 60.7772 90.9775 59.0481 89.9906C57.2795 88.9812 55.2221 88.2172 53.2376 87.766C51.2783 87.3206 49.2311 87.1439 47.5157 87.447C45.8738 87.7371 43.8325 88.6428 43.3775 90.9287L47.3005 91.7095ZM39.0824 106.327C42.9416 102.639 46.2697 96.8888 47.3005 91.7095L43.3775 90.9287C42.5214 95.23 39.6392 100.262 36.319 103.435L39.0824 106.327ZM38.5408 106.399C38.7582 106.387 38.9608 106.438 39.1193 106.518C39.2657 106.593 39.3427 106.675 39.367 106.703C39.3917 106.732 39.386 106.734 39.3659 106.691C39.3469 106.651 39.3237 106.589 39.3039 106.509C39.2612 106.337 39.2572 106.176 39.2705 106.08C39.2765 106.037 39.2816 106.04 39.2651 106.078C39.2485 106.116 39.1981 106.216 39.0824 106.327L36.319 103.435C35.6472 104.077 35.3951 104.905 35.3083 105.531C35.2174 106.187 35.2707 106.864 35.4214 107.472C35.5691 108.068 35.8456 108.737 36.3212 109.296C36.8118 109.872 37.6467 110.458 38.7741 110.393L38.5408 106.399ZM57.6357 100.661C55.6882 102.378 52.7473 103.726 49.2784 104.694C45.8403 105.653 42.0455 106.195 38.5408 106.399L38.7741 110.393C42.4965 110.175 46.5827 109.599 50.3535 108.547C54.0935 107.503 57.6893 105.946 60.2805 103.662L57.6357 100.661ZM57.0796 102.848C58.369 106.377 61.3592 109.459 64.7495 111.979C68.1826 114.531 72.2526 116.674 76.0431 118.258L77.5851 114.567C74.0098 113.073 70.2434 111.079 67.1359 108.769C63.9855 106.427 61.7306 103.922 60.8366 101.475L57.0796 102.848ZM76.0431 118.258C77.0851 118.693 78.0669 118.417 78.7206 118.035C79.3544 117.665 79.837 117.125 80.1735 116.612C80.517 116.088 80.7913 115.467 80.9227 114.817C81.0481 114.198 81.0844 113.333 80.6629 112.505L77.098 114.319C77.0254 114.177 77.011 114.066 77.008 114.024C77.005 113.982 77.0109 113.981 77.0022 114.024C76.9831 114.119 76.9258 114.27 76.8286 114.418C76.7834 114.487 76.7411 114.537 76.7099 114.569C76.6769 114.603 76.672 114.599 76.7048 114.58C76.7371 114.561 76.837 114.509 76.9998 114.488C77.176 114.464 77.3841 114.483 77.5851 114.567L76.0431 118.258ZM80.6629 112.505C78.5801 108.412 77.5262 102.71 78.1422 98.3674L74.1819 97.8056C73.4401 103.034 74.6771 109.562 77.098 114.319L80.6629 112.505ZM78.1422 98.3674C78.4258 96.3682 77.2182 94.9229 75.9694 94.0709C74.7217 93.2197 73.0764 92.6712 71.4084 92.3508C68.0878 91.7132 63.8908 91.8382 60.8125 93.112L62.342 96.8081C64.4999 95.9151 67.8593 95.7424 70.654 96.2791C72.0438 96.5459 73.0958 96.9526 73.7151 97.3752C74.0164 97.5807 74.1355 97.7359 74.173 97.8003C74.1888 97.8276 74.1871 97.833 74.1843 97.8197C74.1813 97.805 74.1831 97.7969 74.1819 97.8056L78.1422 98.3674Z" fill="black"/>
<path d="M18.0534 24.756C18.3494 24.54 18.6014 24.32 18.8094 24.096C19.0174 23.872 19.1934 23.64 19.3374 23.4C19.4814 23.152 19.5934 22.892 19.6734 22.62C19.7534 22.34 19.8134 22.032 19.8534 21.696H18.6294V20.436H21.3534C21.3534 20.78 21.3414 21.108 21.3174 21.42C21.3014 21.724 21.2654 22.016 21.2094 22.296H22.5294V19.968H24.1254V25.62H22.5294V23.556H20.8374C20.6694 23.948 20.4454 24.316 20.1654 24.66C19.8934 25.004 19.5454 25.344 19.1214 25.68L18.0534 24.756ZM18.2574 20.436C18.2574 20.988 18.2174 21.492 18.1374 21.948C18.0654 22.404 17.9374 22.828 17.7534 23.22C17.5774 23.612 17.3414 23.976 17.0454 24.312C16.7494 24.648 16.3814 24.976 15.9414 25.296L14.9334 24.312C15.2054 24.128 15.4414 23.944 15.6414 23.76C15.8494 23.576 16.0254 23.384 16.1694 23.184C16.3134 22.976 16.4294 22.752 16.5174 22.512C16.6134 22.272 16.6854 22 16.7334 21.696H15.3174V20.436H18.2574ZM24.3894 29.736V30.972H16.6974V27.924H22.5414V27.3H16.6854V26.076H24.1254V29.064H18.2814V29.736H24.3894ZM29.0925 24.756C29.3885 24.54 29.6405 24.32 29.8485 24.096C30.0565 23.872 30.2325 23.64 30.3765 23.4C30.5205 23.152 30.6325 22.892 30.7125 22.62C30.7925 22.34 30.8525 22.032 30.8925 21.696H29.6685V20.436H32.3925C32.3925 20.78 32.3805 21.108 32.3565 21.42C32.3405 21.724 32.3045 22.016 32.2485 22.296H33.5685V19.968H35.1645V25.62H33.5685V23.556H31.8765C31.7085 23.948 31.4845 24.316 31.2045 24.66C30.9325 25.004 30.5845 25.344 30.1605 25.68L29.0925 24.756ZM29.2965 20.436C29.2965 20.988 29.2565 21.492 29.1765 21.948C29.1045 22.404 28.9765 22.828 28.7925 23.22C28.6165 23.612 28.3805 23.976 28.0845 24.312C27.7885 24.648 27.4205 24.976 26.9805 25.296L25.9725 24.312C26.2445 24.128 26.4805 23.944 26.6805 23.76C26.8885 23.576 27.0645 23.384 27.2085 23.184C27.3525 22.976 27.4685 22.752 27.5565 22.512C27.6525 22.272 27.7245 22 27.7725 21.696H26.3565V20.436H29.2965ZM35.4285 29.736V30.972H27.7365V27.924H33.5805V27.3H27.7245V26.076H35.1645V29.064H29.3205V29.736H35.4285ZM40.1315 24.756C40.4275 24.54 40.6795 24.32 40.8875 24.096C41.0955 23.872 41.2715 23.64 41.4155 23.4C41.5595 23.152 41.6715 22.892 41.7515 22.62C41.8315 22.34 41.8915 22.032 41.9315 21.696H40.7075V20.436H43.4315C43.4315 20.78 43.4195 21.108 43.3955 21.42C43.3795 21.724 43.3435 22.016 43.2875 22.296H44.6075V19.968H46.2035V25.62H44.6075V23.556H42.9155C42.7475 23.948 42.5235 24.316 42.2435 24.66C41.9715 25.004 41.6235 25.344 41.1995 25.68L40.1315 24.756ZM40.3355 20.436C40.3355 20.988 40.2955 21.492 40.2155 21.948C40.1435 22.404 40.0155 22.828 39.8315 23.22C39.6555 23.612 39.4195 23.976 39.1235 24.312C38.8275 24.648 38.4595 24.976 38.0195 25.296L37.0115 24.312C37.2835 24.128 37.5195 23.944 37.7195 23.76C37.9275 23.576 38.1035 23.384 38.2475 23.184C38.3915 22.976 38.5075 22.752 38.5955 22.512C38.6915 22.272 38.7635 22 38.8115 21.696H37.3955V20.436H40.3355ZM46.4675 29.736V30.972H38.7755V27.924H44.6195V27.3H38.7635V26.076H46.2035V29.064H40.3595V29.736H46.4675Z" fill="black"/>
</svg>
